<mxfile host="app.diagrams.net" modified="2023-11-09T05:03:18.665Z" agent="Mozilla/5.0 (Windows NT 10.0; Win64; x64) AppleWebKit/537.36 (KHTML, like Gecko) Chrome/116.0.5845.837 YaBrowser/23.9.4.837 Yowser/2.5 Safari/537.36" etag="pIGSGB1Df0Vxa1n-b7S7" version="22.1.0" type="google">
  <diagram name="Страница — 1" id="jKIzlfsiV7xBmsW_fJYS">
    <mxGraphModel dx="1290" dy="575" grid="1" gridSize="10" guides="1" tooltips="1" connect="1" arrows="1" fold="1" page="1" pageScale="1" pageWidth="827" pageHeight="1169" math="0" shadow="0">
      <root>
        <mxCell id="0" />
        <mxCell id="1" parent="0" />
        <mxCell id="k17ysSlMf6AoYaophnU4-1" value="&lt;p style=&quot;margin:0px;margin-top:6px;text-align:center;&quot;&gt;«component»&lt;br&gt;&lt;/p&gt;&lt;p style=&quot;margin:0px;margin-top:6px;text-align:center;&quot;&gt;&lt;span&gt;FoodService&lt;/span&gt;&lt;/p&gt;&lt;hr&gt;&lt;p style=&quot;margin:0px;margin-left:8px;&quot;&gt;&lt;br&gt;&lt;/p&gt;" style="align=left;overflow=fill;html=1;dropTarget=0;whiteSpace=wrap;fontStyle=0" parent="1" vertex="1">
          <mxGeometry x="126" y="240" width="624" height="380" as="geometry" />
        </mxCell>
        <mxCell id="k17ysSlMf6AoYaophnU4-2" value="" style="shape=component;jettyWidth=8;jettyHeight=4;fontStyle=0" parent="k17ysSlMf6AoYaophnU4-1" vertex="1">
          <mxGeometry x="1" width="20" height="20" relative="1" as="geometry">
            <mxPoint x="-24" y="4" as="offset" />
          </mxGeometry>
        </mxCell>
        <mxCell id="k17ysSlMf6AoYaophnU4-3" value="«component»&lt;br&gt;&lt;span&gt;Product&lt;/span&gt;" style="html=1;dropTarget=0;whiteSpace=wrap;fontStyle=0" parent="1" vertex="1">
          <mxGeometry x="176" y="420" width="150" height="60" as="geometry" />
        </mxCell>
        <mxCell id="k17ysSlMf6AoYaophnU4-4" value="" style="shape=module;jettyWidth=8;jettyHeight=4;fontStyle=0" parent="k17ysSlMf6AoYaophnU4-3" vertex="1">
          <mxGeometry x="1" width="20" height="20" relative="1" as="geometry">
            <mxPoint x="-27" y="7" as="offset" />
          </mxGeometry>
        </mxCell>
        <mxCell id="k17ysSlMf6AoYaophnU4-5" value="«component»&lt;br&gt;&lt;span&gt;RegistrationProcess&lt;/span&gt;" style="html=1;dropTarget=0;whiteSpace=wrap;fontStyle=0" parent="1" vertex="1">
          <mxGeometry x="390" y="420" width="150" height="60" as="geometry" />
        </mxCell>
        <mxCell id="k17ysSlMf6AoYaophnU4-6" value="" style="shape=module;jettyWidth=8;jettyHeight=4;fontStyle=0" parent="k17ysSlMf6AoYaophnU4-5" vertex="1">
          <mxGeometry x="1" width="20" height="20" relative="1" as="geometry">
            <mxPoint x="-27" y="7" as="offset" />
          </mxGeometry>
        </mxCell>
        <mxCell id="k17ysSlMf6AoYaophnU4-9" value="«component»&lt;br&gt;&lt;span&gt;Administrator&lt;/span&gt;" style="html=1;dropTarget=0;whiteSpace=wrap;fontStyle=0" parent="1" vertex="1">
          <mxGeometry x="150" y="525" width="150" height="60" as="geometry" />
        </mxCell>
        <mxCell id="k17ysSlMf6AoYaophnU4-10" value="" style="shape=module;jettyWidth=8;jettyHeight=4;fontStyle=0" parent="k17ysSlMf6AoYaophnU4-9" vertex="1">
          <mxGeometry x="1" width="20" height="20" relative="1" as="geometry">
            <mxPoint x="-27" y="7" as="offset" />
          </mxGeometry>
        </mxCell>
        <mxCell id="k17ysSlMf6AoYaophnU4-11" value="«component»&lt;br&gt;&lt;span&gt;Services&lt;/span&gt;" style="html=1;dropTarget=0;whiteSpace=wrap;fontStyle=0" parent="1" vertex="1">
          <mxGeometry x="150" y="300" width="150" height="60" as="geometry" />
        </mxCell>
        <mxCell id="k17ysSlMf6AoYaophnU4-12" value="" style="shape=module;jettyWidth=8;jettyHeight=4;fontStyle=0" parent="k17ysSlMf6AoYaophnU4-11" vertex="1">
          <mxGeometry x="1" width="20" height="20" relative="1" as="geometry">
            <mxPoint x="-27" y="7" as="offset" />
          </mxGeometry>
        </mxCell>
        <mxCell id="k17ysSlMf6AoYaophnU4-15" value="«component»&lt;br&gt;&lt;span&gt;DataManagement&lt;/span&gt;" style="html=1;dropTarget=0;whiteSpace=wrap;fontStyle=0" parent="1" vertex="1">
          <mxGeometry x="530" y="670" width="150" height="60" as="geometry" />
        </mxCell>
        <mxCell id="k17ysSlMf6AoYaophnU4-16" value="" style="shape=module;jettyWidth=8;jettyHeight=4;fontStyle=0" parent="k17ysSlMf6AoYaophnU4-15" vertex="1">
          <mxGeometry x="1" width="20" height="20" relative="1" as="geometry">
            <mxPoint x="-27" y="7" as="offset" />
          </mxGeometry>
        </mxCell>
        <mxCell id="k17ysSlMf6AoYaophnU4-17" value="" style="endArrow=openThin;endSize=12;dashed=1;html=1;rounded=0;exitX=0.771;exitY=0.993;exitDx=0;exitDy=0;exitPerimeter=0;endFill=0;fontStyle=0" parent="1" source="k17ysSlMf6AoYaophnU4-1" target="k17ysSlMf6AoYaophnU4-15" edge="1">
          <mxGeometry width="160" relative="1" as="geometry">
            <mxPoint x="320" y="480" as="sourcePoint" />
            <mxPoint x="480" y="480" as="targetPoint" />
          </mxGeometry>
        </mxCell>
        <mxCell id="k17ysSlMf6AoYaophnU4-22" value="" style="endArrow=openThin;endSize=12;dashed=1;html=1;rounded=0;exitX=0.2;exitY=1.017;exitDx=0;exitDy=0;endFill=0;entryX=0.193;entryY=0;entryDx=0;entryDy=0;fontStyle=0;exitPerimeter=0;entryPerimeter=0;" parent="1" source="k17ysSlMf6AoYaophnU4-11" target="k17ysSlMf6AoYaophnU4-3" edge="1">
          <mxGeometry width="160" relative="1" as="geometry">
            <mxPoint x="339" y="554.5" as="sourcePoint" />
            <mxPoint x="290" y="554.5" as="targetPoint" />
          </mxGeometry>
        </mxCell>
        <mxCell id="k17ysSlMf6AoYaophnU4-23" value="" style="endArrow=openThin;endSize=12;dashed=1;html=1;rounded=0;exitX=0.75;exitY=0;exitDx=0;exitDy=0;endFill=0;entryX=0.25;entryY=1;entryDx=0;entryDy=0;fontStyle=0;edgeStyle=orthogonalEdgeStyle;" parent="1" source="k17ysSlMf6AoYaophnU4-3" target="gmrRsLbZMybvjAs8NTVV-3" edge="1">
          <mxGeometry width="160" relative="1" as="geometry">
            <mxPoint x="414" y="480" as="sourcePoint" />
            <mxPoint x="415" y="532" as="targetPoint" />
          </mxGeometry>
        </mxCell>
        <mxCell id="k17ysSlMf6AoYaophnU4-29" value="" style="rounded=0;orthogonalLoop=1;jettySize=auto;html=1;endArrow=halfCircle;endFill=0;endSize=6;strokeWidth=1;sketch=0;exitX=1;exitY=0.25;exitDx=0;exitDy=0;fontStyle=0" parent="1" source="k17ysSlMf6AoYaophnU4-9" edge="1">
          <mxGeometry relative="1" as="geometry">
            <mxPoint x="420" y="485" as="sourcePoint" />
            <mxPoint x="340" y="520" as="targetPoint" />
          </mxGeometry>
        </mxCell>
        <mxCell id="k17ysSlMf6AoYaophnU4-30" value="" style="rounded=0;orthogonalLoop=1;jettySize=auto;html=1;endArrow=oval;endFill=0;sketch=0;sourcePerimeterSpacing=0;targetPerimeterSpacing=0;endSize=10;exitX=0.25;exitY=1;exitDx=0;exitDy=0;fontStyle=0" parent="1" source="k17ysSlMf6AoYaophnU4-5" edge="1">
          <mxGeometry relative="1" as="geometry">
            <mxPoint x="380" y="485" as="sourcePoint" />
            <mxPoint x="340" y="520" as="targetPoint" />
          </mxGeometry>
        </mxCell>
        <mxCell id="k17ysSlMf6AoYaophnU4-31" value="" style="ellipse;whiteSpace=wrap;html=1;align=center;aspect=fixed;fillColor=none;strokeColor=none;resizable=0;perimeter=centerPerimeter;rotatable=0;allowArrows=0;points=[];outlineConnect=1;fontStyle=0" parent="1" vertex="1">
          <mxGeometry x="395" y="480" width="10" height="10" as="geometry" />
        </mxCell>
        <mxCell id="k17ysSlMf6AoYaophnU4-32" value="IGetRegistration" style="text;html=1;strokeColor=none;fillColor=none;align=center;verticalAlign=middle;whiteSpace=wrap;rounded=0;fontStyle=0" parent="1" vertex="1">
          <mxGeometry x="384" y="495" width="60" height="30" as="geometry" />
        </mxCell>
        <mxCell id="k17ysSlMf6AoYaophnU4-34" value="&lt;font style=&quot;font-size: 9px;&quot;&gt;internal structure&lt;/font&gt;" style="text;html=1;strokeColor=none;fillColor=none;align=center;verticalAlign=middle;whiteSpace=wrap;rounded=0;fontStyle=0" parent="1" vertex="1">
          <mxGeometry x="370" y="280" width="110" height="30" as="geometry" />
        </mxCell>
        <mxCell id="k17ysSlMf6AoYaophnU4-35" value="" style="rounded=0;orthogonalLoop=1;jettySize=auto;html=1;endArrow=circle;endFill=0;endSize=6;strokeWidth=1;sketch=0;fontSize=12;curved=1;startArrow=box;startFill=0;fontStyle=0" parent="1" edge="1">
          <mxGeometry relative="1" as="geometry">
            <mxPoint x="130" y="450" as="sourcePoint" />
            <mxPoint x="90" y="450" as="targetPoint" />
          </mxGeometry>
        </mxCell>
        <mxCell id="k17ysSlMf6AoYaophnU4-36" value="" style="ellipse;whiteSpace=wrap;html=1;align=center;aspect=fixed;fillColor=none;strokeColor=none;resizable=0;perimeter=centerPerimeter;rotatable=0;allowArrows=0;points=[];outlineConnect=1;fontStyle=0" parent="1" vertex="1">
          <mxGeometry x="390" y="480" width="10" height="10" as="geometry" />
        </mxCell>
        <mxCell id="k17ysSlMf6AoYaophnU4-37" value="" style="endArrow=none;html=1;rounded=0;startArrow=box;startFill=0;exitX=0;exitY=0.5;exitDx=0;exitDy=0;fontStyle=0" parent="1" source="k17ysSlMf6AoYaophnU4-3" edge="1">
          <mxGeometry width="50" height="50" relative="1" as="geometry">
            <mxPoint x="140" y="449.79999999999995" as="sourcePoint" />
            <mxPoint x="130" y="450" as="targetPoint" />
          </mxGeometry>
        </mxCell>
        <mxCell id="k17ysSlMf6AoYaophnU4-42" value="IProduct" style="text;html=1;strokeColor=none;fillColor=none;align=center;verticalAlign=middle;whiteSpace=wrap;rounded=0;fontStyle=0" parent="1" vertex="1">
          <mxGeometry x="55" y="460" width="60" height="30" as="geometry" />
        </mxCell>
        <mxCell id="gmrRsLbZMybvjAs8NTVV-2" value="Основной компонент FoodService требует интерфейс регистрацию пользователя IUserRegistrate и&amp;nbsp; IProduct. Интерфейсы используются в элементах основного компонента Administrator и Product. Компонент Administrator содержит логику работы CRUD пользователей системы, а также CRUD элементов структуры услуг Services. Для заказа реализован интерфейс IGetRegistration компонентом RegistrationProcess, которому для работы необходимы компоненты Services и Product. Компонент Services задействует в своей работе компонент Cooks.&lt;br&gt;Также основной компонент FoodService задействует компонент с данными DataManagement." style="text;html=1;strokeColor=none;fillColor=none;align=center;verticalAlign=middle;whiteSpace=wrap;rounded=0;" parent="1" vertex="1">
          <mxGeometry x="9" y="790" width="700" height="30" as="geometry" />
        </mxCell>
        <mxCell id="gmrRsLbZMybvjAs8NTVV-3" value="«component»&lt;br&gt;&lt;span&gt;Cooks&lt;/span&gt;" style="html=1;dropTarget=0;whiteSpace=wrap;fontStyle=0" parent="1" vertex="1">
          <mxGeometry x="339" y="300" width="150" height="60" as="geometry" />
        </mxCell>
        <mxCell id="gmrRsLbZMybvjAs8NTVV-4" value="" style="shape=module;jettyWidth=8;jettyHeight=4;fontStyle=0" parent="gmrRsLbZMybvjAs8NTVV-3" vertex="1">
          <mxGeometry x="1" width="20" height="20" relative="1" as="geometry">
            <mxPoint x="-27" y="7" as="offset" />
          </mxGeometry>
        </mxCell>
        <mxCell id="gmrRsLbZMybvjAs8NTVV-5" value="" style="endArrow=openThin;endSize=12;dashed=1;html=1;rounded=0;exitX=1;exitY=0.5;exitDx=0;exitDy=0;endFill=0;fontStyle=0" parent="1" edge="1">
          <mxGeometry width="160" relative="1" as="geometry">
            <mxPoint x="300" y="329.5" as="sourcePoint" />
            <mxPoint x="340" y="329.5" as="targetPoint" />
          </mxGeometry>
        </mxCell>
        <mxCell id="ZVwIl--Q3zajLWv78a53-4" value="" style="endArrow=openThin;endSize=12;dashed=1;html=1;rounded=0;exitX=0.25;exitY=0;exitDx=0;exitDy=0;endFill=0;fontStyle=0;" edge="1" parent="1" source="k17ysSlMf6AoYaophnU4-9" target="k17ysSlMf6AoYaophnU4-11">
          <mxGeometry width="160" relative="1" as="geometry">
            <mxPoint x="215" y="430" as="sourcePoint" />
            <mxPoint x="190" y="371" as="targetPoint" />
          </mxGeometry>
        </mxCell>
        <mxCell id="ZVwIl--Q3zajLWv78a53-5" value="" style="endArrow=openThin;endSize=12;dashed=1;html=1;rounded=0;exitX=0;exitY=0.5;exitDx=0;exitDy=0;endFill=0;fontStyle=0" edge="1" parent="1" target="k17ysSlMf6AoYaophnU4-11">
          <mxGeometry width="160" relative="1" as="geometry">
            <mxPoint x="400" y="460" as="sourcePoint" />
            <mxPoint x="336" y="460" as="targetPoint" />
          </mxGeometry>
        </mxCell>
        <mxCell id="ZVwIl--Q3zajLWv78a53-6" value="" style="endArrow=openThin;endSize=12;dashed=1;html=1;rounded=0;endFill=0;fontStyle=0;" edge="1" parent="1" source="k17ysSlMf6AoYaophnU4-9" target="k17ysSlMf6AoYaophnU4-3">
          <mxGeometry width="160" relative="1" as="geometry">
            <mxPoint x="410" y="470" as="sourcePoint" />
            <mxPoint x="346" y="470" as="targetPoint" />
          </mxGeometry>
        </mxCell>
      </root>
    </mxGraphModel>
  </diagram>
</mxfile>
